<svg xmlns="http://www.w3.org/2000/svg" width="20" height="20" fill="none"><path fill="#5D6679" d="M18.387 1.947H16.29v-.531c0-.506-.246-.973-.645-1.226a1.192 1.192 0 0 0-1.29 0c-.4.253-.645.72-.645 1.226v.53H6.29v-.53C6.29.91 6.044.443 5.645.19a1.192 1.192 0 0 0-1.29 0c-.4.253-.645.72-.645 1.226v.53H1.613c-.428 0-.838.187-1.14.52A1.862 1.862 0 0 0 0 3.715V18.23c0 .47.17.92.472 1.252.303.332.713.518 1.14.518h16.775c.428 0 .838-.186 1.14-.518.303-.332.473-.783.473-1.252V3.717c0-.47-.17-.92-.472-1.252a1.545 1.545 0 0 0-1.14-.518Zm-4.032-.531c0-.253.123-.487.322-.613a.596.596 0 0 1 .645 0c.2.126.323.36.323.613V3.54a.723.723 0 0 1-.323.613.596.596 0 0 1-.645 0 .723.723 0 0 1-.322-.613V1.416Zm-10 0c0-.253.123-.487.322-.613a.596.596 0 0 1 .645 0c.2.126.323.36.323.613V3.54a.723.723 0 0 1-.323.613.596.596 0 0 1-.645 0 .723.723 0 0 1-.322-.613V1.416ZM1.613 2.655h2.096v.885c0 .506.246.973.646 1.226.399.253.89.253 1.29 0s.645-.72.645-1.226v-.885h7.42v.885c0 .506.245.973.645 1.226.399.253.89.253 1.29 0s.645-.72.645-1.226v-.885h2.097c.256 0 .503.112.684.31.182.2.284.47.284.752v2.655H.645V3.717c0-.282.102-.552.283-.751a.927.927 0 0 1 .685-.311Zm16.774 16.637H1.613a.926.926 0 0 1-.685-.311c-.181-.2-.283-.47-.283-.75V7.08h18.71v11.15c0 .282-.102.552-.284.751a.927.927 0 0 1-.684.311Z"/></svg>