<svg xmlns="http://www.w3.org/2000/svg" width="30" height="30" fill="none"><rect width="30" height="30" fill="#E7E5FF" rx="4"/><path fill="#817AF3" d="M10.737 19.369a.338.338 0 0 0-.336-.341H5.196a.338.338 0 0 0-.336.34c0 .19.15.342.336.342h5.209a.337.337 0 0 0 .332-.341Zm-5.541 1.095a.338.338 0 0 0-.336.34c0 .19.15.341.336.341h2.83a.338.338 0 0 0 .335-.34.338.338 0 0 0-.335-.341h-2.83Zm17.321-7.281c-2.971 0-5.39 2.455-5.39 5.471 0 3.017 2.419 5.472 5.39 5.472 2.972 0 5.39-2.455 5.39-5.472 0-3.016-2.418-5.47-5.39-5.47Zm0 10.26c-2.6 0-4.718-2.15-4.718-4.789 0-2.64 2.118-4.79 4.718-4.79 2.601 0 4.72 2.15 4.72 4.79s-2.115 4.79-4.72 4.79Z"/><path fill="#817AF3" d="M25.71 16.733c0-.353-.134-.686-.379-.935a1.291 1.291 0 0 0-1.833 0l-.976.991-.98-.995a1.297 1.297 0 0 0-1.83.004 1.327 1.327 0 0 0-.384.935c0 .353.135.686.384.935l.972.99-.972.987a1.328 1.328 0 0 0 0 1.87c.466.473 1.371.473 1.834 0l.976-.991.976.99c.24.245.577.385.916.385.34 0 .676-.14.917-.385.245-.248.38-.581.38-.934 0-.353-.135-.686-.38-.935l-.972-.987.972-.99c.242-.253.38-.582.38-.935Zm-.857.45-1.209 1.23a.345.345 0 0 0 0 .482l1.21 1.228c.118.12.181.28.181.449a.636.636 0 0 1-.182.45.64.64 0 0 1-.885 0l-1.213-1.232a.326.326 0 0 0-.237-.1.32.32 0 0 0-.237.1l-1.213 1.231c-.218.221-.668.221-.882 0a.64.64 0 0 1 0-.898l1.213-1.228a.346.346 0 0 0 .1-.24.339.339 0 0 0-.1-.241l-1.213-1.232a.64.64 0 0 1-.004-.898.624.624 0 0 1 .882-.004l1.217 1.231c.13.133.344.133.474 0l1.21-1.227a.622.622 0 0 1 .885 0c.118.12.181.28.181.449a.619.619 0 0 1-.178.45Z"/><path fill="#817AF3" d="M18.293 23.183H5.52c-1.07 0-1.94-.882-1.94-1.97V7.657c0-1.087.87-1.97 1.94-1.97h4.122v4.22a.742.742 0 0 0 .74.75.733.733 0 0 0 .37-.104l1.49-.887a.067.067 0 0 1 .068 0l1.49.883a.72.72 0 0 0 .739.004.742.742 0 0 0 .371-.65v-4.22h4.122c1.07 0 1.944.883 1.944 1.97v4.625c0 .188.15.34.336.34a.338.338 0 0 0 .336-.34V7.652C21.648 6.187 20.474 5 19.032 5H5.52C4.078 5 2.908 6.191 2.908 7.652V21.21c0 1.464 1.174 2.651 2.612 2.651h12.773a.338.338 0 0 0 .336-.34.337.337 0 0 0-.336-.338Zm-4.054-13.28a.064.064 0 0 1-.032.055.067.067 0 0 1-.067 0l-1.49-.882a.722.722 0 0 0-.743 0l-1.49.886a.067.067 0 0 1-.067 0c-.024-.012-.032-.032-.032-.056V5.682h3.924v4.22h-.004Z"/><path fill="#817AF3" d="M13.685 18.438h2.458a.338.338 0 0 0 .336-.341c0-.189-.15-.34-.336-.34h-2.458a.871.871 0 0 0-.861.878v2.005a.87.87 0 0 0 .861.875h2.932a.338.338 0 0 0 .336-.341.338.338 0 0 0-.335-.341h-2.933a.187.187 0 0 1-.186-.189V18.64c0-.113.083-.201.186-.201Z"/></svg>