<svg xmlns="http://www.w3.org/2000/svg" width="30" height="30" fill="none"><rect width="30" height="30" fill="#E7E5FF" rx="4"/><path fill="#817AF3" fill-opacity=".8" fill-rule="evenodd" d="M6.69 2A1.69 1.69 0 0 0 5 3.69v21.62c0 .934.756 1.69 1.69 1.69h16.215a1.69 1.69 0 0 0 1.69-1.69V3.69A1.69 1.69 0 0 0 22.905 2H6.69Zm2.796.676H6.69c-.56 0-1.013.453-1.013 1.013v21.622c0 .56.453 1.013 1.013 1.013h16.216c.56 0 1.014-.453 1.014-1.013V3.689c0-.56-.454-1.013-1.014-1.013h-2.797l-.444 1.334a1.013 1.013 0 0 1-.962.693h-7.81c-.435 0-.823-.28-.96-.693l-.446-1.334Zm9.91 0H10.2l.373 1.12c.046.138.175.23.32.23h7.81a.337.337 0 0 0 .32-.23l.374-1.12Z" clip-rule="evenodd"/><path fill="#817AF3" fill-opacity=".8" fill-rule="evenodd" d="M8.04 9.432c0-.56.454-1.013 1.014-1.013h1.351c.56 0 1.014.454 1.014 1.013v1.351c0 .56-.454 1.014-1.014 1.014h-1.35c-.56 0-1.014-.454-1.014-1.014v-1.35Zm1.014-.338a.338.338 0 0 0-.338.338v1.351c0 .187.151.338.338.338h1.351a.338.338 0 0 0 .338-.338v-1.35a.338.338 0 0 0-.338-.339h-1.35ZM8.04 14.5c0-.56.454-1.014 1.014-1.014h1.351c.56 0 1.014.454 1.014 1.014v1.351c0 .56-.454 1.014-1.014 1.014h-1.35c-.56 0-1.014-.454-1.014-1.014V14.5Zm1.014-.338a.338.338 0 0 0-.338.338v1.351c0 .187.151.338.338.338h1.351a.338.338 0 0 0 .338-.338V14.5a.338.338 0 0 0-.338-.338h-1.35ZM8.04 19.567c0-.56.454-1.013 1.014-1.013h1.351c.56 0 1.014.454 1.014 1.014v1.35c0 .56-.454 1.014-1.014 1.014h-1.35c-.56 0-1.014-.453-1.014-1.013v-1.352Zm1.014-.337a.338.338 0 0 0-.338.337v1.352c0 .186.151.338.338.338h1.351a.338.338 0 0 0 .338-.338v-1.352a.338.338 0 0 0-.338-.337h-1.35ZM12.77 10.108c0-.187.152-.338.338-.338h8.446a.338.338 0 1 1 0 .676h-8.446a.338.338 0 0 1-.338-.338ZM12.77 15.176c0-.187.152-.338.338-.338h8.446a.338.338 0 1 1 0 .676h-8.446a.338.338 0 0 1-.338-.338ZM12.77 20.243c0-.186.152-.337.338-.337h8.446a.338.338 0 1 1 0 .675h-8.446a.338.338 0 0 1-.338-.338Z" clip-rule="evenodd"/></svg>