<svg xmlns="http://www.w3.org/2000/svg" width="30" height="30" fill="none"><rect width="30" height="30" fill="#EBFFED" rx="4"/><path fill="#58D365" fill-opacity=".7" d="M18.94 13.089h-6.133c-.238 0-.431-.177-.431-.395 0-.219.193-.396.431-.396h6.132c.239 0 .432.177.432.396 0 .218-.193.395-.431.395ZM18.94 15.962h-6.133c-.238 0-.431-.177-.431-.396 0-.218.193-.395.431-.395h6.132c.239 0 .432.177.432.395 0 .219-.193.396-.431.396Z"/><path fill="#58D365" fill-opacity=".7" d="M12.87 18.65c-.238 0-.431-.177-.431-.396 0-.218.193-.395.431-.395 2.31 0 4.261-1.104 4.261-2.41 0-1.305-1.951-2.409-4.26-2.409-.239 0-.432-.177-.432-.395 0-.218.193-.396.431-.396 2.874 0 5.125 1.406 5.125 3.2 0 1.795-2.251 3.2-5.125 3.2Z"/><path fill="#58D365" fill-opacity=".7" d="M17.482 23.301a.45.45 0 0 1-.314-.124l-4.558-4.443a.373.373 0 0 1 .019-.56.46.46 0 0 1 .61.018l4.558 4.443c.163.16.154.41-.02.559a.453.453 0 0 1-.295.107Z"/><path fill="#58D365" fill-opacity=".7" d="M4.032 15.211h2.084v11.114c0 .389.305.694.694.694h18.06a.688.688 0 0 0 .694-.694V15.21h2.084c.611 0 .917-.75.5-1.194L16.34 2.208c-.278-.277-.722-.277-.972 0L3.532 14.017c-.417.444-.111 1.194.5 1.194ZM15.84 3.681l10.141 10.141H24.87a.688.688 0 0 0-.695.695V25.63H7.505V14.517a.688.688 0 0 0-.695-.695H5.7L15.84 3.681Z"/></svg>