<svg xmlns="http://www.w3.org/2000/svg" width="24" height="24" fill="none"><path fill="#5D6679" stroke="#5D6679" stroke-width=".1" d="M6.4 2.806a.368.368 0 0 1 .455.266l.589 2.2 4.633-1.215.079-.013a.374.374 0 0 1 .399.28l.982 3.636L17.13 7l.078-.013c.181-.012.352.091.4.28l1.84 6.834 1.645-.427.078-.013a.374.374 0 0 1 .4.28l.44 1.622.025.119c.097.59-.255 1.193-.85 1.308l.002.001-5.942 1.566a2.477 2.477 0 0 1-1.845 2.558v.001a2.482 2.482 0 0 1-2.89-1.288l-.98.269c-.208.051-.423-.052-.478-.267L5.056 5.115l-1.9.475a.986.986 0 0 1-1.171-.684c-.148-.515.172-1.028.682-1.174h.002l3.73-.927Zm8.028 15.607c-.18-.899-1.148-1.553-2.14-1.282a1.695 1.695 0 0 0-1.193 2.16 1.702 1.702 0 0 0 2.093 1.127l.158-.054c.77-.3 1.271-1.086 1.082-1.95v-.001ZM2.856 4.455c-.117.037-.156.15-.13.252.014.05.043.094.083.12a.186.186 0 0 0 .159.018h.002l2.271-.557.012-.003v.002h.07c.143 0 .28.102.347.231l.025.058v.003L9.693 19.27l.58-.141a2.504 2.504 0 0 1 .536-1.934l-.467.121c-.208.052-.424-.051-.478-.267L6.214 3.609l-3.358.846ZM13.63 16.462c.648.239 1.183.756 1.432 1.394l5.914-1.563a.41.41 0 0 0 .303-.433l-.014-.086-.335-1.25c-2.277.609-5.07 1.346-7.3 1.938Zm-4.886-6.436 1.758 6.461 8.223-2.175-1.758-6.462-8.223 2.176Zm-1.09-4.01.878 3.264 4.26-1.132-.877-3.264-4.26 1.133Z"/></svg>