<svg xmlns="http://www.w3.org/2000/svg" width="30" height="30" fill="none"><rect width="30" height="30" fill="#ECEAFF" rx="4"/><path fill="#817AF3" fill-opacity=".6" d="M14.812 2a9.374 9.374 0 0 0-9.375 9.375c0 5 8.55 14.375 8.913 14.8.119.129.287.201.462.2a.625.625 0 0 0 .463-.2l.787-.894v.47A1.25 1.25 0 0 0 17.312 27h7.5a1.25 1.25 0 0 0 1.25-1.25v-7.5a1.25 1.25 0 0 0-1.25-1.25h-2.644c1.338-2.312 2.02-4.2 2.02-5.625A9.375 9.375 0 0 0 14.811 2Zm10 23.75h-7.5v-7.5h1.875v2.5a.625.625 0 0 0 .906.556l.969-.481.968.48a.622.622 0 0 0 .907-.555v-2.5h1.875v7.5Zm-3.125-7.5v1.487l-.313-.169a.625.625 0 0 0-.562 0l-.344.17V18.25h1.22ZM19.812 17h-2.5a1.25 1.25 0 0 0-1.25 1.25v5.1a39.55 39.55 0 0 1-1.25 1.462c-1.781-2.031-8.125-9.518-8.125-13.437a8.126 8.126 0 0 1 16.25 0c0 1.306-.775 3.25-2.225 5.625h-.9Z"/><path fill="#817AF3" fill-opacity=".6" d="M14.812 7a4.375 4.375 0 1 0 0 8.75 4.375 4.375 0 0 0 0-8.75Zm0 7.5a3.124 3.124 0 1 1 0-6.249 3.124 3.124 0 0 1 0 6.249Z"/></svg>