<svg xmlns="http://www.w3.org/2000/svg" width="48" height="48" fill="none"><path fill="#009ED8" d="M24 3.974 44.785 14.98v22.013L24 48 3.215 36.993V14.98L24 3.974Z"/><path fill="#0ACF83" d="M14.355 31.688V12.082c2.237-2.55 4.282-1.062 5.026 0v9.125L42.483.099c3.165-.593 3.656 1.622 3.506 2.804L14.356 31.688Z"/><path fill="#fff" d="M14.355 41.761v-6.207l5.57-4.834 3.294 2.911-8.864 8.13ZM36.458 41.414 22.201 28.358l13.475-12.47c3.834-.396 3.834 1.96 3.354 3.186l-10.098 9.284 11.85 10.764-4.324 2.292Z"/></svg>