<svg xmlns="http://www.w3.org/2000/svg" width="24" height="24" fill="none"><path fill="#5D6679" d="M12.565 21.645h-7.47a.454.454 0 0 1-.45-.458V3.113c0-.252.202-.458.45-.458h7.47a.325.325 0 0 0 .323-.328.325.325 0 0 0-.323-.327h-7.47C4.49 2 4 2.5 4 3.113v18.074c0 .614.491 1.113 1.095 1.113h7.47a.325.325 0 0 0 .323-.327.325.325 0 0 0-.323-.328Zm7.585-9.726-4.425-4.492a.32.32 0 0 0-.457 0 .33.33 0 0 0 0 .463l3.875 3.933H8.613a.325.325 0 0 0-.323.327c0 .18.144.327.322.327h10.531l-3.875 3.933a.33.33 0 0 0 0 .463.318.318 0 0 0 .457 0l4.425-4.491a.33.33 0 0 0 0-.463Z"/></svg>