<svg width="24" height="24" viewBox="0 0 24 24" fill="none" xmlns="http://www.w3.org/2000/svg">
<path d="M13.4417 19.5C13.2952 19.7526 13.0849 19.9622 12.8319 20.108C12.5788 20.2537 12.292 20.3304 12 20.3304C11.708 20.3304 11.4212 20.2537 11.1681 20.108C10.9151 19.9622 10.7048 19.7526 10.5583 19.5M17 8.66669C17 7.3406 16.4732 6.06883 15.5355 5.13115C14.5979 4.19347 13.3261 3.66669 12 3.66669C10.6739 3.66669 9.40215 4.19347 8.46447 5.13115C7.52678 6.06883 7 7.3406 7 8.66669C7 14.5 4.5 16.1667 4.5 16.1667H19.5C19.5 16.1667 17 14.5 17 8.66669Z" stroke="#5D6679" stroke-width="1.2" stroke-linecap="round" stroke-linejoin="round"/>
</svg>
