<svg xmlns="http://www.w3.org/2000/svg" width="24" height="24" fill="none"><path fill="#5D6679" stroke="#5D6679" stroke-width=".2" d="M15.086 2.518c.021 0 .061-.001.099.01a.18.18 0 0 1 .094.064l6.646 3.938c.113.046.174.16.175.285v14.321a.346.346 0 0 1-.097.249.348.348 0 0 1-.25.098H7.433a.332.332 0 0 1-.245-.104l-.001-.002-5.184-5.43a.356.356 0 0 1-.076-.107.332.332 0 0 1-.027-.137V2.865c0-.097.033-.186.097-.25a.347.347 0 0 1 .25-.097h12.839Zm-7.307 18.27h13.627V7.161h-4.985v3.604a.348.348 0 0 1-.097.25.348.348 0 0 1-.25.098h-3.21a.347.347 0 0 1-.25-.098.347.347 0 0 1-.096-.25V7.16H7.779v13.627Zm-5.185-5.224 4.491 4.704V6.987L2.594 3.56v12.004Zm10.617-5.146h2.516V7.161h-2.516v3.257Zm3.215-3.95h4.05l-5.492-3.257h-3.443l4.885 3.257Zm-3.457 0h2.208L10.29 3.211H8.083l4.886 3.257Zm-5.428 0h4.179L6.834 3.211h-3.55L7.54 6.468Z"/></svg>