<svg xmlns="http://www.w3.org/2000/svg" width="30" height="30" fill="none"><rect width="30" height="30" fill="#FFEEDB" rx="4"/><path fill="#DBA362" fill-opacity=".8" fill-rule="evenodd" d="M3.304 16.774a.34.34 0 0 1 .208-.431c8.293-2.887 15.554-7.133 21.599-12.617l-1.719.094a.338.338 0 1 1-.037-.675L26.02 3h.036a.338.338 0 0 1 .317.386l-.385 2.642a.337.337 0 0 1-.668-.098l.248-1.706c-6.113 5.546-13.453 9.84-21.834 12.758a.337.337 0 0 1-.43-.207v-.001Zm24.305 10.55V9.859h-2.564v17.465h2.564Zm.338-18.141h-3.24a.338.338 0 0 0-.337.337v18.141c0 .187.151.338.338.338h3.24c.186 0 .337-.15.337-.338V9.52a.338.338 0 0 0-.338-.337Zm-7.366 18.14V13.53h-2.564v13.794h2.564Zm.338-14.469h-3.24a.338.338 0 0 0-.337.338v14.47c0 .187.15.337.338.337h3.239c.186 0 .338-.15.338-.338v-14.47a.338.338 0 0 0-.338-.337Zm-7.366 14.47V16.498h-2.564v10.825h2.564Zm.338-11.5h-3.24a.337.337 0 0 0-.338.337v11.5c0 .187.152.338.338.338h3.24c.186 0 .338-.15.338-.338v-11.5a.337.337 0 0 0-.338-.337Zm-7.367 11.5H3.961v-6.451h2.564v6.45Zm.338-7.127H3.623a.337.337 0 0 0-.338.338v7.126c0 .188.151.338.338.338h3.24c.186 0 .337-.15.337-.338v-7.126a.337.337 0 0 0-.338-.337Z" clip-rule="evenodd"/><path stroke="#DBA362" stroke-opacity=".8" stroke-width=".2" d="M6.962 20.098v.011a.437.437 0 0 1 .339.426v7.126a.438.438 0 0 1-.439.438H3.623a.437.437 0 0 1-.437-.438v-7.126c0-.242.195-.437.437-.437h3.339Zm6.929-4.374c.241 0 .437.195.437.437v11.5a.437.437 0 0 1-.437.438h-3.24a.437.437 0 0 1-.437-.438v-11.5c0-.242.196-.437.437-.437h3.24Zm7.028-2.97c.241 0 .438.197.437.437v14.47a.437.437 0 0 1-.437.438h-3.24a.438.438 0 0 1-.438-.438v-14.47a.44.44 0 0 1 .439-.437h3.239Zm7.028-3.671c.242 0 .438.196.438.437V27.66a.437.437 0 0 1-.438.438h-3.239a.438.438 0 0 1-.438-.438V9.52c0-.241.197-.437.438-.437h3.24Zm-2.802 18.14h2.364V9.96h-2.364v17.265Zm-7.028 0h2.364V13.632h-2.364v13.593Zm-7.028 0h2.364V16.6H11.09v10.625Zm-7.028 0h2.364v-6.25H4.06v6.25ZM26.02 2.9h.04a.437.437 0 0 1 .41.501l-.384 2.641a.437.437 0 0 1-.498.37V6.41a.437.437 0 0 1-.368-.494l.208-1.435c-6.083 5.467-13.362 9.706-21.662 12.595h-.001a.437.437 0 0 1-.556-.269l-.023-.067.006-.006a.438.438 0 0 1 .286-.485v-.001c8.186-2.85 15.36-7.025 21.353-12.407l-1.434.079a.438.438 0 0 1-.048-.875l2.665-.145h.005Z"/></svg>