<svg xmlns="http://www.w3.org/2000/svg" width="20" height="25" fill="none"><path fill="#009ED8" d="M18.505 5.48c-.036-.327-.29-.581-.617-.581h-3.011C14.877 2.213 12.663 0 9.978 0A4.901 4.901 0 0 0 5.08 4.899H2.068c-.326 0-.58.254-.617.58L0 21.662v.073C0 23.549 1.67 25 3.701 25h12.554c2.032 0 3.701-1.451 3.701-3.265v-.073l-1.45-16.183ZM9.978 1.27A3.64 3.64 0 0 1 13.607 4.9H6.35A3.64 3.64 0 0 1 9.978 1.27Zm6.277 22.496H3.701c-1.342 0-2.431-.907-2.467-1.995L2.613 6.168H5.08v2.178c0 .326.29.616.617.616.326 0 .616-.29.616-.616V6.168h7.294v2.178c0 .326.29.616.616.616.327 0 .617-.29.617-.616V6.168h2.467l1.38 15.603c0 1.088-1.089 1.995-2.431 1.995Z"/></svg>