<svg xmlns="http://www.w3.org/2000/svg" width="30" height="30" fill="none"><rect width="30" height="30" fill="#ECEAFF" rx="4"/><mask id="a" width="27" height="25" x="2" y="2" fill="#000" maskUnits="userSpaceOnUse"><path fill="#fff" d="M2 2h27v25H2z"/><path d="M18.781 15.214h-6.563a.35.35 0 0 0-.35.35v10.88c0 .193.157.35.35.35h6.563a.35.35 0 0 0 .35-.35v-10.88a.35.35 0 0 0-.35-.35Zm-6.212 5.417v-1.115h5.863v1.115h-5.863Zm5.862.7v1.115h-5.863V21.33h5.864Zm-5.863-2.515V17.7h5.864v1.116h-5.863Zm0 4.33h5.864v1.116h-5.863v-1.116Zm5.864-7.232v1.087h-5.863v-1.087h5.862Zm-5.863 10.18V24.96h5.863v1.133h-5.863ZM27.65 9.773h-6.563a.35.35 0 0 0-.35.35v16.32c0 .192.157.35.35.35h6.563a.35.35 0 0 0 .35-.35v-16.32a.35.35 0 0 0-.35-.35Zm-6.213 9.04V17.7h5.864v1.116h-5.864Zm5.864.7v1.116h-5.864v-1.115h5.864ZM21.437 17v-1.116h5.864V17h-5.864Zm0-1.815v-1.116h5.864v1.116h-5.864Zm0 6.145h5.864v1.116h-5.864V21.33Zm5.864-7.96h-5.864v-1.116h5.864v1.115Zm-5.864 9.775h5.864v1.116h-5.864v-1.116Zm5.864-12.671v1.08h-5.864v-1.08h5.864Zm-5.864 15.62V24.96h5.864v1.132h-5.864Zm-11.524-5.44H3.35a.35.35 0 0 0-.35.35v5.44c0 .193.157.35.35.35h6.563a.35.35 0 0 0 .35-.35v-5.44a.35.35 0 0 0-.35-.35ZM3.7 23.166h5.863v1.114H3.7v-1.114Zm5.863-1.813v1.114H3.7v-1.114h5.863ZM3.7 26.093V24.98h5.863v1.113H3.7Zm12.963-14.425L24.632 3.7h-3.66a.35.35 0 0 1 0-.7h4.505a.35.35 0 0 1 .35.35v4.505a.35.35 0 0 1-.7 0v-3.66l-8.216 8.216a.35.35 0 0 1-.495 0l-2.6-2.6-8.044 8.044a.35.35 0 1 1-.495-.495L13.57 9.07a.35.35 0 0 1 .495 0l2.6 2.6Z"/></mask><path fill="#817AF3" d="M18.781 15.214h-6.563a.35.35 0 0 0-.35.35v10.88c0 .193.157.35.35.35h6.563a.35.35 0 0 0 .35-.35v-10.88a.35.35 0 0 0-.35-.35Zm-6.212 5.417v-1.115h5.863v1.115h-5.863Zm5.862.7v1.115h-5.863V21.33h5.864Zm-5.863-2.515V17.7h5.864v1.116h-5.863Zm0 4.33h5.864v1.116h-5.863v-1.116Zm5.864-7.232v1.087h-5.863v-1.087h5.862Zm-5.863 10.18V24.96h5.863v1.133h-5.863ZM27.65 9.773h-6.563a.35.35 0 0 0-.35.35v16.32c0 .192.157.35.35.35h6.563a.35.35 0 0 0 .35-.35v-16.32a.35.35 0 0 0-.35-.35Zm-6.213 9.04V17.7h5.864v1.116h-5.864Zm5.864.7v1.116h-5.864v-1.115h5.864ZM21.437 17v-1.116h5.864V17h-5.864Zm0-1.815v-1.116h5.864v1.116h-5.864Zm0 6.145h5.864v1.116h-5.864V21.33Zm5.864-7.96h-5.864v-1.116h5.864v1.115Zm-5.864 9.775h5.864v1.116h-5.864v-1.116Zm5.864-12.671v1.08h-5.864v-1.08h5.864Zm-5.864 15.62V24.96h5.864v1.132h-5.864Zm-11.524-5.44H3.35a.35.35 0 0 0-.35.35v5.44c0 .193.157.35.35.35h6.563a.35.35 0 0 0 .35-.35v-5.44a.35.35 0 0 0-.35-.35ZM3.7 23.166h5.863v1.114H3.7v-1.114Zm5.863-1.813v1.114H3.7v-1.114h5.863ZM3.7 26.093V24.98h5.863v1.113H3.7Zm12.963-14.425L24.632 3.7h-3.66a.35.35 0 0 1 0-.7h4.505a.35.35 0 0 1 .35.35v4.505a.35.35 0 0 1-.7 0v-3.66l-8.216 8.216a.35.35 0 0 1-.495 0l-2.6-2.6-8.044 8.044a.35.35 0 1 1-.495-.495L13.57 9.07a.35.35 0 0 1 .495 0l2.6 2.6Z"/><path stroke="#817AF3" stroke-width=".2" d="M18.781 15.214h-6.563a.35.35 0 0 0-.35.35v10.88c0 .193.157.35.35.35h6.563a.35.35 0 0 0 .35-.35v-10.88a.35.35 0 0 0-.35-.35Zm-6.212 5.417v-1.115h5.863v1.115h-5.863Zm5.862.7v1.115h-5.863V21.33h5.864Zm-5.863-2.515V17.7h5.864v1.116h-5.863Zm0 4.33h5.864v1.116h-5.863v-1.116Zm5.864-7.232v1.087h-5.863v-1.087h5.862Zm-5.863 10.18V24.96h5.863v1.133h-5.863ZM27.65 9.773h-6.563a.35.35 0 0 0-.35.35v16.32c0 .192.157.35.35.35h6.563a.35.35 0 0 0 .35-.35v-16.32a.35.35 0 0 0-.35-.35Zm-6.213 9.04V17.7h5.864v1.116h-5.864Zm5.864.7v1.116h-5.864v-1.115h5.864ZM21.437 17v-1.116h5.864V17h-5.864Zm0-1.815v-1.116h5.864v1.116h-5.864Zm0 6.145h5.864v1.116h-5.864V21.33Zm5.864-7.96h-5.864v-1.116h5.864v1.115Zm-5.864 9.775h5.864v1.116h-5.864v-1.116Zm5.864-12.671v1.08h-5.864v-1.08h5.864Zm-5.864 15.62V24.96h5.864v1.132h-5.864Zm-11.524-5.44H3.35a.35.35 0 0 0-.35.35v5.44c0 .193.157.35.35.35h6.563a.35.35 0 0 0 .35-.35v-5.44a.35.35 0 0 0-.35-.35ZM3.7 23.166h5.863v1.114H3.7v-1.114Zm5.863-1.813v1.114H3.7v-1.114h5.863ZM3.7 26.093V24.98h5.863v1.113H3.7Zm12.963-14.425L24.632 3.7h-3.66a.35.35 0 0 1 0-.7h4.505a.35.35 0 0 1 .35.35v4.505a.35.35 0 0 1-.7 0v-3.66l-8.216 8.216a.35.35 0 0 1-.495 0l-2.6-2.6-8.044 8.044a.35.35 0 1 1-.495-.495L13.57 9.07a.35.35 0 0 1 .495 0l2.6 2.6Z" mask="url(#a)"/></svg>