<svg xmlns="http://www.w3.org/2000/svg" width="25" height="23" fill="none"><path fill="#629FF4" d="M16.12 4.605a2.303 2.303 0 1 0 0-4.606 2.303 2.303 0 0 0 0 4.606Zm0-3.29a.987.987 0 1 1-.001 1.974.987.987 0 0 1 0-1.973ZM19.737 6.907a2.302 2.302 0 1 0 4.605 0 2.302 2.302 0 0 0-4.605 0Zm3.29 0a.986.986 0 1 1-1.973 0 .986.986 0 0 1 1.973 0ZM15.728 8.916a.657.657 0 0 0 .921-.138l5.592-7.565a.659.659 0 0 0-1.06-.782L15.59 7.996a.657.657 0 0 0 .138.92ZM5.594 5.592c-.934 0-5.592.095-5.592 1.973 0 1.878 4.658 1.974 5.592 1.974.934 0 5.591-.096 5.591-1.974S6.528 5.592 5.594 5.592Zm0 2.631c-2.197 0-3.618-.378-4.131-.658.513-.28 1.934-.658 4.13-.658 2.198 0 3.619.379 4.132.658-.513.28-1.934.658-4.131.658Z"/><path fill="#629FF4" d="M10.528 9.045a.658.658 0 0 0-.658.553c-.29.276-1.793.763-4.276.763-2.483 0-3.997-.494-4.276-.763a.66.66 0 0 0-1.316.105c0 1.878 4.658 1.974 5.592 1.974.934 0 5.591-.096 5.591-1.974a.658.658 0 0 0-.658-.658Z"/><path fill="#629FF4" d="M10.528 11.348a.658.658 0 0 0-.658.552c-.29.276-1.793.763-4.276.763-2.483 0-3.997-.493-4.276-.763a.66.66 0 0 0-1.316.105c0 1.879 4.658 1.974 5.592 1.974.934 0 5.591-.095 5.591-1.974a.657.657 0 0 0-.658-.657Z"/><path fill="#629FF4" d="M10.528 13.65a.658.658 0 0 0-.658.553c-.29.276-1.793.763-4.276.763-2.483 0-3.997-.493-4.276-.763a.66.66 0 0 0-1.316.105c0 1.878 4.658 1.974 5.592 1.974.934 0 5.591-.096 5.591-1.974a.657.657 0 0 0-.658-.658Z"/><path fill="#629FF4" d="M10.528 15.952a.658.658 0 0 0-.658.553c-.29.276-1.793.763-4.276.763-2.483 0-3.997-.493-4.276-.763a.66.66 0 0 0-1.316.105c0 1.878 4.658 1.974 5.592 1.974.934 0 5.591-.096 5.591-1.974a.658.658 0 0 0-.658-.658Z"/><path fill="#629FF4" d="M10.528 18.255a.658.658 0 0 0-.658.553c-.29.276-1.793.763-4.276.763-2.483 0-3.997-.494-4.276-.763a.66.66 0 1 0-1.316.105c0 1.878 4.658 1.974 5.592 1.974.934 0 5.591-.096 5.591-1.974a.658.658 0 0 0-.658-.658ZM19.408 15.788c.934 0 5.592-.095 5.592-1.973 0-1.879-4.658-1.974-5.592-1.974-.934 0-5.591.095-5.591 1.974 0 1.878 4.657 1.973 5.591 1.973Zm0-2.631c2.197 0 3.619.378 4.132.658-.514.28-1.935.658-4.132.658-2.197 0-3.618-.379-4.13-.658.512-.28 1.933-.658 4.13-.658Z"/><path fill="#629FF4" d="M24.342 15.295a.658.658 0 0 0-.658.552c-.29.276-1.792.763-4.276.763-2.483 0-3.996-.493-4.276-.763a.66.66 0 0 0-1.315.106c0 1.878 4.657 1.973 5.591 1.973.934 0 5.592-.095 5.592-1.973a.657.657 0 0 0-.658-.658Z"/><path fill="#629FF4" d="M24.342 17.597a.658.658 0 0 0-.658.553c-.29.276-1.792.763-4.276.763-2.483 0-3.996-.494-4.276-.763a.66.66 0 0 0-1.315.105c0 1.878 4.657 1.974 5.591 1.974.934 0 5.592-.096 5.592-1.974a.657.657 0 0 0-.658-.658Z"/><path fill="#629FF4" d="M24.342 19.9a.658.658 0 0 0-.658.552c-.29.277-1.792.763-4.276.763-2.483 0-3.996-.493-4.276-.763a.66.66 0 1 0-1.315.106c0 1.878 4.657 1.973 5.591 1.973.934 0 5.592-.095 5.592-1.973a.658.658 0 0 0-.658-.658Z"/></svg>