<svg xmlns="http://www.w3.org/2000/svg" width="24" height="24" fill="none"><path fill="#5D6679" d="m21.727 20.41-4.787-4.787a.928.928 0 0 0-.897-.239l-1.027-1.027a7.404 7.404 0 0 0 1.868-4.915C16.884 5.34 13.546 2 9.444 2 5.338 2 2 5.339 2 9.443c0 4.104 3.338 7.442 7.443 7.442 1.884 0 3.602-.71 4.915-1.869l1.027 1.028a.928.928 0 0 0 .238.897l4.787 4.786a.928.928 0 0 0 1.317 0 .932.932 0 0 0 0-1.318ZM2.932 9.442c0-3.59 2.92-6.511 6.51-6.511s6.51 2.92 6.51 6.51-2.92 6.511-6.51 6.511-6.51-2.92-6.51-6.51Z"/></svg>