<svg xmlns="http://www.w3.org/2000/svg" width="24" height="24" fill="none"><g stroke="#5D6679" stroke-linecap="round" stroke-linejoin="round" stroke-width="1.2" clip-path="url(#a)"><path d="M12 14.5a2.5 2.5 0 1 0 0-5 2.5 2.5 0 0 0 0 5Z"/><path d="M18.167 14.5a1.375 1.375 0 0 0 .275 1.517l.05.05a1.666 1.666 0 0 1-.541 2.72 1.667 1.667 0 0 1-1.818-.362l-.05-.05a1.375 1.375 0 0 0-1.516-.275 1.375 1.375 0 0 0-.834 1.258v.142a1.667 1.667 0 0 1-3.333 0v-.075a1.375 1.375 0 0 0-.9-1.258 1.375 1.375 0 0 0-1.517.275l-.05.05a1.667 1.667 0 1 1-2.358-2.359l.05-.05a1.375 1.375 0 0 0 .275-1.516 1.376 1.376 0 0 0-1.258-.834H4.5a1.667 1.667 0 0 1 0-3.333h.075a1.375 1.375 0 0 0 1.258-.9 1.375 1.375 0 0 0-.275-1.517l-.05-.05a1.667 1.667 0 1 1 2.359-2.358l.05.05a1.375 1.375 0 0 0 1.516.275H9.5a1.375 1.375 0 0 0 .833-1.258V4.5a1.666 1.666 0 1 1 3.334 0v.075a1.375 1.375 0 0 0 .833 1.258 1.375 1.375 0 0 0 1.517-.275l.05-.05a1.667 1.667 0 1 1 2.358 2.359l-.05.05a1.375 1.375 0 0 0-.275 1.516V9.5a1.376 1.376 0 0 0 1.258.833h.142a1.666 1.666 0 1 1 0 3.334h-.075a1.376 1.376 0 0 0-1.258.833Z"/></g><defs><clipPath id="a"><path fill="#fff" d="M2 2h20v20H2z"/></clipPath></defs></svg>