<svg width="24" height="24" viewBox="0 0 24 24" fill="none" xmlns="http://www.w3.org/2000/svg">
<g clip-path="url(#clip0_1_3269)">
<path d="M11.9999 14.5C13.3806 14.5 14.4999 13.3807 14.4999 12C14.4999 10.6193 13.3806 9.49998 11.9999 9.49998C10.6192 9.49998 9.49992 10.6193 9.49992 12C9.49992 13.3807 10.6192 14.5 11.9999 14.5Z" stroke="#5D6679" stroke-width="1.2" stroke-linecap="round" stroke-linejoin="round"/>
<path d="M18.1666 14.5C18.0557 14.7513 18.0226 15.0301 18.0716 15.3005C18.1206 15.5708 18.2495 15.8202 18.4416 16.0166L18.4916 16.0666C18.6465 16.2214 18.7695 16.4052 18.8533 16.6076C18.9372 16.8099 18.9804 17.0268 18.9804 17.2458C18.9804 17.4648 18.9372 17.6817 18.8533 17.884C18.7695 18.0864 18.6465 18.2702 18.4916 18.425C18.3368 18.5799 18.153 18.7029 17.9507 18.7867C17.7483 18.8706 17.5314 18.9138 17.3124 18.9138C17.0934 18.9138 16.8765 18.8706 16.6742 18.7867C16.4719 18.7029 16.288 18.5799 16.1332 18.425L16.0833 18.375C15.8869 18.1829 15.6374 18.054 15.3671 18.005C15.0967 17.956 14.8179 17.989 14.5666 18.1C14.3201 18.2056 14.1099 18.381 13.9618 18.6046C13.8138 18.8282 13.7343 19.0902 13.7333 19.3583V19.5C13.7333 19.942 13.5577 20.3659 13.2451 20.6785C12.9325 20.991 12.5086 21.1666 12.0666 21.1666C11.6246 21.1666 11.2006 20.991 10.8881 20.6785C10.5755 20.3659 10.3999 19.942 10.3999 19.5V19.425C10.3935 19.1491 10.3042 18.8816 10.1437 18.6572C9.98317 18.4328 9.75886 18.2619 9.49992 18.1666C9.24857 18.0557 8.96976 18.0226 8.69943 18.0716C8.4291 18.1207 8.17965 18.2495 7.98325 18.4416L7.93325 18.4916C7.77846 18.6466 7.59465 18.7695 7.39232 18.8534C7.18999 18.9373 6.97311 18.9805 6.75408 18.9805C6.53506 18.9805 6.31818 18.9373 6.11585 18.8534C5.91352 18.7695 5.72971 18.6466 5.57492 18.4916C5.41996 18.3369 5.29703 18.153 5.21315 17.9507C5.12928 17.7484 5.08611 17.5315 5.08611 17.3125C5.08611 17.0935 5.12928 16.8766 5.21315 16.6742C5.29703 16.4719 5.41996 16.2881 5.57492 16.1333L5.62492 16.0833C5.81703 15.8869 5.94591 15.6375 5.99492 15.3671C6.04394 15.0968 6.01085 14.818 5.89992 14.5666C5.79428 14.3202 5.61888 14.11 5.39531 13.9619C5.17173 13.8138 4.90974 13.7344 4.64159 13.7333H4.49992C4.05789 13.7333 3.63397 13.5577 3.32141 13.2452C3.00885 12.9326 2.83325 12.5087 2.83325 12.0666C2.83325 11.6246 3.00885 11.2007 3.32141 10.8881C3.63397 10.5756 4.05789 10.4 4.49992 10.4H4.57492C4.85075 10.3935 5.11826 10.3042 5.34267 10.1437C5.56708 9.98323 5.73801 9.75893 5.83325 9.49998C5.94418 9.24863 5.97727 8.96982 5.92826 8.69949C5.87924 8.42916 5.75037 8.17971 5.55825 7.98331L5.50825 7.93331C5.35329 7.77852 5.23036 7.59471 5.14649 7.39238C5.06261 7.19005 5.01944 6.97317 5.01944 6.75415C5.01944 6.53512 5.06261 6.31824 5.14649 6.11591C5.23036 5.91358 5.35329 5.72977 5.50825 5.57498C5.66304 5.42002 5.84685 5.29709 6.04918 5.21321C6.25151 5.12934 6.46839 5.08617 6.68742 5.08617C6.90644 5.08617 7.12332 5.12934 7.32565 5.21321C7.52798 5.29709 7.7118 5.42002 7.86658 5.57498L7.91658 5.62498C8.11298 5.81709 8.36243 5.94597 8.63276 5.99498C8.90309 6.044 9.1819 6.01091 9.43325 5.89998H9.49992C9.74639 5.79434 9.9566 5.61894 10.1047 5.39537C10.2527 5.17179 10.3322 4.9098 10.3333 4.64165V4.49998C10.3333 4.05795 10.5088 3.63403 10.8214 3.32147C11.134 3.00891 11.5579 2.83331 11.9999 2.83331C12.4419 2.83331 12.8659 3.00891 13.1784 3.32147C13.491 3.63403 13.6666 4.05795 13.6666 4.49998V4.57498C13.6677 4.84313 13.7471 5.10513 13.8952 5.3287C14.0432 5.55228 14.2534 5.72768 14.4999 5.83331C14.7513 5.94424 15.0301 5.97733 15.3004 5.92832C15.5707 5.8793 15.8202 5.75043 16.0166 5.55831L16.0666 5.50831C16.2214 5.35335 16.4052 5.23042 16.6075 5.14655C16.8098 5.06267 17.0267 5.0195 17.2458 5.0195C17.4648 5.0195 17.6817 5.06267 17.884 5.14655C18.0863 5.23042 18.2701 5.35335 18.4249 5.50831C18.5799 5.6631 18.7028 5.84692 18.7867 6.04925C18.8706 6.25158 18.9137 6.46845 18.9137 6.68748C18.9137 6.90651 18.8706 7.12338 18.7867 7.32571C18.7028 7.52804 18.5799 7.71186 18.4249 7.86665L18.3749 7.91665C18.1828 8.11305 18.0539 8.36249 18.0049 8.63282C17.9559 8.90315 17.989 9.18197 18.0999 9.43331V9.49998C18.2056 9.74645 18.381 9.95666 18.6045 10.1047C18.8281 10.2528 19.0901 10.3322 19.3583 10.3333H19.4999C19.9419 10.3333 20.3659 10.5089 20.6784 10.8215C20.991 11.134 21.1666 11.558 21.1666 12C21.1666 12.442 20.991 12.8659 20.6784 13.1785C20.3659 13.4911 19.9419 13.6666 19.4999 13.6666H19.4249C19.1568 13.6677 18.8948 13.7472 18.6712 13.8952C18.4476 14.0433 18.2722 14.2535 18.1666 14.5Z" stroke="#5D6679" stroke-width="1.2" stroke-linecap="round" stroke-linejoin="round"/>
</g>
<defs>
<clipPath id="clip0_1_3269">
<rect width="20" height="20" fill="white" transform="translate(2 2)"/>
</clipPath>
</defs>
</svg>
