<svg xmlns="http://www.w3.org/2000/svg" width="24" height="24" fill="none"><path fill="currentColor" d="M11.023 17.855H9.649c-.092 0-.153.06-.153.152s.061.153.153.153h1.374c.091 0 .153-.061.153-.152a.164.164 0 0 0-.153-.153Z"/><path fill="currentColor" d="M19.677 2.846a2.365 2.365 0 0 0-1.684-.697H6.566c-.636 0-1.234.247-1.684.697a2.365 2.365 0 0 0-.697 1.684v15.238c0 .636.247 1.234.697 1.684.45.45 1.048.697 1.684.697h11.429c.636 0 1.234-.248 1.684-.697.45-.45.697-1.048.697-1.684V4.53a2.37 2.37 0 0 0-.698-1.684Zm-.254 16.923a1.43 1.43 0 0 1-1.428 1.428H6.565a1.43 1.43 0 0 1-1.428-1.428V4.53c0-.788.64-1.428 1.429-1.428h11.429c.787 0 1.428.64 1.428 1.428V19.77Z"/><path fill="currentColor" d="M10.039 10.86 8.47 12.428l-.615-.615a.477.477 0 0 0-.673.673l.952.953a.475.475 0 0 0 .675 0l1.905-1.905a.477.477 0 1 0-.676-.674ZM10.039 15.621 8.47 17.189l-.615-.615a.476.476 0 0 0-.673.673l.952.953a.475.475 0 0 0 .675 0l1.905-1.905a.477.477 0 1 0-.676-.674ZM10.039 6.098 8.47 7.666l-.615-.616a.477.477 0 0 0-.673.674l.952.952a.475.475 0 0 0 .675 0l1.905-1.905a.476.476 0 1 0-.676-.673ZM17.043 11.673H12.28a.476.476 0 1 0 0 .952h4.763a.476.476 0 1 0 0-.952ZM17.043 17.387H12.28a.476.476 0 1 0 0 .952h4.763a.476.476 0 1 0 0-.952ZM17.043 6.91H12.28a.476.476 0 1 0 0 .952h4.763a.476.476 0 1 0 0-.951ZM11.023 18.923H9.649c-.092 0-.153.061-.153.153 0 .091.061.153.153.153h1.374c.091 0 .153-.061.153-.153a.153.153 0 0 0-.153-.153Z"/></svg>