<svg width="20" height="20" viewBox="0 0 20 20" fill="none" xmlns="http://www.w3.org/2000/svg">
<path d="M9.99992 0C4.48613 0 0 4.48613 0 9.99992C0 12.4652 0.898431 14.7231 2.38279 16.4682C2.4018 16.4975 2.4236 16.5252 2.44906 16.5507C2.45482 16.5564 2.46127 16.5601 2.46702 16.5655C4.30174 18.6677 6.99734 19.9997 10 19.9997C13.0027 19.9997 15.6982 18.6677 17.533 16.5655C17.5387 16.5603 17.5455 16.5562 17.5509 16.5507C17.5764 16.5252 17.5984 16.4971 17.6172 16.4682C19.1016 14.7229 20 12.465 20 9.99992C20 4.48613 15.5139 0 10.0001 0H9.99992ZM9.99992 18.9999C7.44414 18.9999 5.13567 17.9274 3.49595 16.2109L4.18095 15.5259C4.84273 14.8643 5.72232 14.4998 6.65758 14.4998H13.3424C14.2776 14.4998 15.1572 14.8643 15.8188 15.5257L16.5038 16.2107C14.8642 17.9272 12.5557 18.9999 9.99983 18.9999H9.99992ZM17.1561 15.449L16.5259 14.8188C15.6754 13.9683 14.5449 13.4998 13.3424 13.4998H6.65758C5.455 13.4998 4.32465 13.9683 3.47417 14.8188L2.84395 15.449C1.68829 13.9354 0.999992 12.0468 0.999992 9.99997C0.999992 5.03751 5.03719 1.00004 9.99992 1.00004C14.9624 1.00004 18.9999 5.03724 18.9999 9.99997C18.9999 12.0469 18.3116 13.9355 17.1561 15.449H17.1561ZM9.99992 4.50001C7.79449 4.50001 5.99986 6.29441 5.99986 8.50007C5.99986 10.7055 7.79427 12.5001 9.99992 12.5001C12.2054 12.5001 14 10.7057 14 8.50007C14 6.29441 12.2054 4.50001 9.99992 4.50001ZM9.99992 11.5C8.34569 11.5 6.99999 10.1542 6.99999 8.50002C6.99999 6.84579 8.34574 5.50009 9.99992 5.50009C11.6541 5.50009 12.9999 6.84584 12.9999 8.50002C12.9999 10.1543 11.6541 11.5 9.99992 11.5Z" fill="#5D6679"/>
</svg>
